<svg xmlns="http://www.w3.org/2000/svg" width="18" height="18" viewBox="0 0 18 18"><defs><clipPath id="hxg1a"><path fill="#fff" d="M9 2a7 7 0 1 1 0 14A7 7 0 0 1 9 2z"/></clipPath></defs><g><g><path fill="#fff" d="M9 2a7 7 0 1 1 0 14A7 7 0 0 1 9 2z"/><path fill="none" stroke="#555" stroke-linecap="round" stroke-linejoin="round" stroke-miterlimit="20" stroke-width="4" d="M9 2a7 7 0 1 1 0 14A7 7 0 0 1 9 2z" clip-path="url(&quot;#hxg1a&quot;)"/></g><g><path d="M9 6a3 3 0 1 1 0 6 3 3 0 0 1 0-6z"/></g></g></svg>